<?xml version="1.0" encoding="iso-8859-1"?>
<!-- Generator: Adobe Illustrator 19.0.0, SVG Export Plug-In . SVG Version: 6.00 Build 0)  -->
<svg version="1.1" id="Layer_1" xmlns="http://www.w3.org/2000/svg" xmlns:xlink="http://www.w3.org/1999/xlink" x="0px" y="0px"
	 viewBox="0 0 503.096 503.096" style="enable-background:new 0 0 503.096 503.096;" xml:space="preserve">
<g>
	<g>
		<path d="M459.144,176.13c16.419-36.768,9.565-81.404-20.605-111.574c-30.17-30.17-74.805-37.022-111.574-20.605L283.014,0
			L0,283.014l43.952,43.952c-16.419,36.768-9.565,81.404,20.605,111.574c30.17,30.17,74.805,37.022,111.574,20.605l43.952,43.952
			l283.014-283.013L459.144,176.13z M193.684,277.939c-13.707,13.707-35.931,13.707-49.638,0c-13.707-13.707-13.707-35.931,0-49.638
			c13.707-13.707,35.931-13.707,49.638,0C207.392,242.008,207.392,264.232,193.684,277.939z M247.699,370.12L222.77,136.456
			l32.625-3.481l24.929,233.665L247.699,370.12z M359.248,274.993c-13.707,13.707-35.931,13.707-49.638,0
			c-13.707-13.707-13.707-35.931,0-49.638c13.707-13.707,35.931-13.707,49.638,0C372.955,239.062,372.955,261.286,359.248,274.993z"
			/>
	</g>
</g>
<g>
</g>
<g>
</g>
<g>
</g>
<g>
</g>
<g>
</g>
<g>
</g>
<g>
</g>
<g>
</g>
<g>
</g>
<g>
</g>
<g>
</g>
<g>
</g>
<g>
</g>
<g>
</g>
<g>
</g>
</svg>
