<svg xmlns="http://www.w3.org/2000/svg" width="36" height="36" viewBox="0 0 36 36">
    <path fill="#FFF" fill-rule="nonzero" d="M29.582 23.946L20.7 8.558a3.116 3.116 0 0 0-5.398 0L6.418 23.946a3.116 3.116 0 0 0 2.699 4.674h17.766a3.117 3.117 0 0 0 2.7-4.674zm-10.636.42a.898.898 0 0 1-.898.898H18a.898.898 0 0 1-.898-.898v-.048c0-.496.402-.898.898-.898h.048c.496 0 .898.402.898.898v.048zm-.049-2.766a.898.898 0 1 1-1.795 0l-.582-8.153c0-.496.984-1.092 1.48-1.092s1.48.596 1.48 1.092l-.583 8.153z"/>
</svg>
