<svg xmlns="http://www.w3.org/2000/svg" width="36" height="36" viewBox="0 0 36 36">
    <defs>
        <linearGradient id="a" x1="0%" y1="50%" y2="50%">
            <stop offset="0%" stop-color="#26DAFF"/>
            <stop offset="100%" stop-color="#21C2FF"/>
        </linearGradient>
        <linearGradient id="b" x1="10.479%" x2="91.539%" y1="50%" y2="50%">
            <stop offset="0%" stop-color="#FDBB00"/>
            <stop offset="100%" stop-color="#FEDB00"/>
        </linearGradient>
        <linearGradient id="c" x1="26.255%" x2="68.923%" y1="89.914%" y2="15.414%">
            <stop offset="0%" stop-color="#DF2454"/>
            <stop offset="100%" stop-color="#FC3944"/>
        </linearGradient>
        <linearGradient id="d" x1="23.371%" x2="72.232%" y1="0%" y2="80.666%">
            <stop offset="0%" stop-color="#21D374"/>
            <stop offset="100%" stop-color="#26F076"/>
        </linearGradient>
    </defs>
    <g fill="none" fill-rule="nonzero">
        <path fill="url(#a)" d="M7.482 5.413C7.18 5.733 7 6.229 7 6.872v22.966c0 .644.179 1.14.482 1.46l.077.074 12.905-12.866v-.303L7.56 5.337l-.077.076z"/>
        <path fill="url(#b)" d="M24.766 22.797l-4.301-4.29v-.304l4.302-4.29.097.056 5.097 2.887c1.455.824 1.455 2.173 0 2.999l-5.097 2.887-.098.055z"/>
        <path fill="url(#c)" d="M24.864 22.741l-4.4-4.386L7.482 31.297c.48.507 1.272.57 2.165.063l15.217-8.619"/>
        <path fill="url(#d)" d="M24.864 13.968L9.647 5.35c-.893-.506-1.685-.443-2.165.064l12.982 12.942 4.4-4.387z"/>
        <path fill="#000" d="M24.767 22.645l-15.12 8.564c-.846.48-1.602.447-2.087.011l-.077.078.077.075v-.001c.485.436 1.241.468 2.087-.012l15.217-8.619-.097-.096zM7.482 31.146C7.18 30.826 7 30.33 7 29.686v.152c0 .643.179 1.14.482 1.46l.077-.077-.077-.075z"/>
        <path fill="#000" d="M29.96 19.702l-5.193 2.942.097.097 5.097-2.887c.728-.412 1.091-.955 1.091-1.498-.061.49-.431.973-1.091 1.346"/>
        <path fill="#FFF" d="M9.647 5.501L29.96 17.007c.66.374 1.032.856 1.093 1.348 0-.543-.365-1.087-1.093-1.5L9.647 5.35C8.19 4.525 7 5.21 7 6.872v.151c0-1.661 1.19-2.347 2.647-1.522"/>
    </g>
</svg>
