<svg xmlns="http://www.w3.org/2000/svg" width="36" height="36" viewBox="0 0 36 36">
    <path fill="#FFF" fill-rule="nonzero" d="M6.448 29.64A1.445 1.445 0 0 1 5 28.193v-2.072a2.508 2.508 0 0 1 .912-1.948 39.334 39.334 0 0 1 7.09-4.553.098.098 0 0 0 .054-.09v-2.308a5.625 5.625 0 0 1-.672-1.806c-.362-.113-.684-.696-.99-1.777-.277-.986-.295-1.625 0-1.954a.642.642 0 0 1 .445-.225 4.968 4.968 0 0 1-.148-.592 5.329 5.329 0 0 1 0-2.407 5.246 5.246 0 0 1 1.412-2.478 6.738 6.738 0 0 1 1.288-1.09c.39-.274.816-.492 1.267-.648.372-.126.76-.2 1.152-.219a4.778 4.778 0 0 1 2.904.616 3.742 3.742 0 0 1 1.394 1.276c.42.09.794.33 1.051.675.67.85.841 2.289.513 4.275-.037.2-.087.398-.148.592a.64.64 0 0 1 .444.225c.272.329.27.968 0 1.954-.296 1.078-.63 1.661-.992 1.777a5.54 5.54 0 0 1-.67 1.776v1.776a6.427 6.427 0 0 0-1.02 5.311l-3.772 3.784c-.432.432-.731.979-.862 1.575H6.448zm23.258-10.008a4.408 4.408 0 0 1-5.225 6.99l-1.276 1.276.55.551a1.143 1.143 0 1 1-1.616 1.61l-.551-.55-1 1 .55.551a1.145 1.145 0 1 1-1.62 1.62l-.547-.548-.82-.82-.157-.163a1.146 1.146 0 0 1 0-1.62l4.707-4.707a4.408 4.408 0 0 1 6.999-5.19h.006zm-1.856 1.842a1.776 1.776 0 1 0-2.49 2.534 1.776 1.776 0 0 0 2.49-2.534z"/>
</svg>
