<svg xmlns="http://www.w3.org/2000/svg" width="36" height="36" viewBox="0 0 36 36">
    <path fill="#FFF" fill-rule="nonzero" d="M26.045 17.422c.039 4.391 3.908 5.843 3.955 5.859-.023.102-.606 2.095-2.057 4.118-1.212 1.782-2.481 3.523-4.498 3.555-1.959.044-2.618-1.133-4.864-1.133-2.268 0-2.97 1.101-4.849 1.177-1.92.07-3.388-1.902-4.643-3.667-2.51-3.605-4.465-10.158-1.845-14.617 1.27-2.187 3.585-3.596 6.06-3.633 1.922-.039 3.706 1.276 4.888 1.276 1.159 0 3.365-1.573 5.64-1.338.95.028 3.659.37 5.406 2.874-.141.083-3.226 1.865-3.193 5.53zm-3.7-10.774c-1.054 1.223-2.741 2.159-4.384 2.038-.215-1.65.617-3.405 1.55-4.476 1.053-1.215 2.882-2.146 4.344-2.21.192 1.715-.499 3.406-1.51 4.648z"/>
</svg>
