<svg xmlns="http://www.w3.org/2000/svg" width="36" height="36" viewBox="0 0 36 36">
    <path fill="#FFF" fill-rule="nonzero" d="M5.118 10.521l8.812 7.626-8.726 7.551A2.309 2.309 0 0 1 5 24.75v-13.5c0-.256.043-.5.118-.729zm25.764 0c.075.229.118.473.118.729v13.5c0 .34-.075.66-.204.948l-8.726-7.551 8.812-7.626zM20.08 19.868l.973-.843 8.864 7.67c-.32.193-.69.305-1.085.305H7.167a2.09 2.09 0 0 1-1.085-.305l8.864-7.67.973.843c.561.486 1.3.754 2.081.754.78 0 1.52-.268 2.08-.754zM18 19.271a1.9 1.9 0 0 1-1.248-.44L5.892 9.433C6.25 9.163 6.69 9 7.167 9h21.666c.477 0 .917.162 1.275.433l-10.86 9.398c-.328.284-.771.44-1.248.44z"/>
</svg>
