<svg xmlns="http://www.w3.org/2000/svg" xmlns:xlink="http://www.w3.org/1999/xlink" width="20" height="20" viewBox="0 0 20 20">
    <defs>
        <path id="a" d="M8.88 16.737a7.835 7.835 0 0 0 4.737-1.596L17.471 19 19 17.47l-3.854-3.86a7.766 7.766 0 0 0 1.593-4.742C16.74 4.535 13.21 1 8.88 1 4.531.98 1 4.514 1 8.868c0 4.355 3.531 7.869 7.88 7.869zm0-13.603c3.144 0 5.706 2.565 5.706 5.713 0 3.147-2.562 5.712-5.706 5.712-3.143 0-5.727-2.543-5.727-5.69A5.728 5.728 0 0 1 8.88 3.133z"/>
    </defs>
    <g fill="none" fill-rule="evenodd">
        <mask id="b" fill="#fff">
            <use xlink:href="#a"/>
        </mask>
        <g fill="rgba(0, 0, 0, 0.6)" fill-opacity=".9" mask="url(#b)">
            <path d="M0 0h20v20H0z"/>
        </g>
    </g>
</svg>
