<svg xmlns="http://www.w3.org/2000/svg" width="80" height="44" viewBox="0 0 80 44">
    <g fill="none" fill-rule="nonzero">
        <path fill="#417D1F" d="M20.29 5.857l2.808-4.582 2.804 4.582z"/>
        <path fill="#619E1E" d="M18.24 5.857l-2.224-3.229 7.189 3.229z"/>
        <path fill="#619E1E" d="M27.948 5.857l2.223-3.229-7.187 3.229z"/>
        <path fill="#EE3A49" d="M29.976 9.621c-1.178-2.063-2.028-2.734-2.028-2.734H18.237s-.852.671-2.028 2.734c-1.091 1.908-1.178 3.636-.57 5.325.783 2.175 3.414 6.532 4.459 7.594.884.899 1.901 1.032 2.582 1.037v.001H23.504v-.001c.681-.005 1.698-.138 2.583-1.037 1.045-1.062 3.678-5.419 4.459-7.594.608-1.689.52-3.417-.57-5.325z"/>
        <path fill="#FFF" d="M21.34 15.025c0 .423-.532.762-.532.762s-.53-.34-.53-.762c0-.42.53-.76.53-.76s.533.34.533.76zM25.876 15.025c0 .423-.534.762-.534.762s-.53-.34-.53-.762c0-.42.53-.76.53-.76s.534.34.534.76zM23.624 18.673c0 .42-.53.761-.53.761s-.532-.34-.532-.761.531-.762.531-.762.53.34.53.762zM19.085 11.364c0 .42-.533.761-.533.761s-.533-.34-.533-.761c0-.422.533-.76.533-.76s.533.338.533.76zM23.624 11.364c0 .42-.53.761-.53.761s-.532-.34-.532-.761c0-.422.531-.76.531-.76s.53.338.53.76zM28.163 11.364c0 .42-.527.761-.527.761s-.535-.34-.535-.761c0-.422.535-.76.535-.76s.527.338.527.76z"/>
        <path fill="#231F20" d="M43.443 6.899v6.056h-6.454V6.899h-3.455v16.576h3.455V16.41h6.454v7.066h3.454V6.9zM73.903 23.765h-1.677c-3.22 0-5.84-2.619-5.84-5.84v-5.47a5.847 5.847 0 0 1 5.84-5.841h1.677c3.22 0 5.84 2.622 5.84 5.84h-3.454a2.39 2.39 0 0 0-2.386-2.385h-1.677a2.387 2.387 0 0 0-2.387 2.386v5.47a2.387 2.387 0 0 0 2.387 2.387h1.677a2.389 2.389 0 0 0 2.386-2.387h3.454c0 3.221-2.62 5.84-5.84 5.84zM8.788 12.944H3.677v-2.598h8.734V6.892H.224v16.575h8.564a4.88 4.88 0 0 0 4.876-4.875v-.775a4.878 4.878 0 0 0-4.876-4.873zm1.422 5.648c0 .783-.638 1.42-1.422 1.42H3.677v-3.615h5.111c.784 0 1.422.636 1.422 1.42v.775zM61.29 6.899c-.954 1.925-2.394 4.832-3.643 7.31l-3.688-7.31h-3.87l5.62 11.132c-.771 1.479-1.205 1.963-1.958 1.963h-2.162v3.455h2.162c3.12 0 4.417-2.595 5.364-4.49.094-.19.188-.378.285-.566 1.704-3.318 4.785-9.555 5.74-11.494h-3.85zM24.613 38.605h-1.479V30.43h-4.27v8.176h-1.48V28.95h7.229zM48.816 28.804h-.974a3.129 3.129 0 0 0-3.125 3.129v1.105h-2.343v-4.06h-1.48v9.636h1.48v-4.097h2.343v1.107c0 1.724 1.399 3.127 3.125 3.127h.974a3.133 3.133 0 0 0 3.128-3.127v-3.691a3.133 3.133 0 0 0-3.128-3.129zm1.646 6.82a1.65 1.65 0 0 1-1.646 1.648h-.974a1.65 1.65 0 0 1-1.647-1.648v-3.691c0-.91.74-1.648 1.647-1.648h.974c.907 0 1.646.738 1.646 1.648v3.691zM60.065 38.751h-.973a3.13 3.13 0 0 1-3.126-3.127v-3.691a3.13 3.13 0 0 1 3.126-3.129h.973a3.13 3.13 0 0 1 3.128 3.129h-1.478a1.65 1.65 0 0 0-1.65-1.648h-.973a1.65 1.65 0 0 0-1.648 1.648v3.691c0 .908.74 1.648 1.648 1.648h.973c.91 0 1.65-.74 1.65-1.648h1.478a3.13 3.13 0 0 1-3.128 3.127zM29.791 38.622l2.889-7.458 2.886 7.458h1.592l-3.757-9.654h-1.445l-3.757 9.654z"/>
    </g>
</svg>
