<svg xmlns="http://www.w3.org/2000/svg" width="36" height="36" viewBox="0 0 36 36">
    <path fill="#FFF" fill-rule="evenodd" d="M29.614 6.12c-.785-.732-3.964-3.065-11.038-3.097 0 0-8.346-.508-12.413 3.266-2.263 2.291-3.06 5.64-3.144 9.798-.085 4.158-.193 11.945 7.228 14.056l.007.002-.003 3.223s-.047 1.305.8 1.57c1.028.323 1.632-.67 2.612-1.737.538-.586 1.281-1.45 1.842-2.107 5.075.43 8.98-.556 9.424-.702 1.025-.338 6.823-1.089 7.766-8.875.973-8.03-.47-13.108-3.08-15.397zm.86 14.817c-.798 6.502-5.5 6.913-6.367 7.194-.37.12-3.799.982-8.11.698 0 0-3.213 3.92-4.216 4.94-.156.16-.34.225-.463.194-.173-.043-.222-.25-.218-.552l.026-5.356c-6.277-1.764-5.912-8.393-5.84-11.864.07-3.47.716-6.315 2.63-8.227 3.441-3.153 10.529-2.682 10.529-2.682 5.985.026 8.854 1.851 9.52 2.462 2.206 1.912 3.331 6.488 2.508 13.193zm-11.298.39s.562.05.864-.33l.591-.75c.285-.372.973-.611 1.646-.232.89.508 2.044 1.309 2.833 2.054.435.372.537.918.24 1.495l-.003.011a6.137 6.137 0 0 1-1.228 1.53l-.012.01c-.58.49-1.247.774-1.961.539l-.013-.019c-1.28-.366-4.354-1.952-6.313-3.532-3.205-2.558-5.481-6.776-6.113-9.037l-.019-.014c-.232-.724.05-1.4.533-1.983l.01-.012c.47-.521.974-.933 1.512-1.242l.012-.002c.57-.302 1.11-.2 1.477.24.484.507 1.393 1.723 2.03 2.867.376.68.141 1.377-.228 1.665l-.743.597c-.375.306-.326.875-.326.875s1.099 4.209 5.211 5.27zm6.47-3.49a.403.403 0 0 0 .398-.407c-.02-2.663-.827-4.8-2.396-6.35-1.566-1.544-3.538-2.335-5.861-2.352h-.002c-.22 0-.4.178-.402.402 0 .224.177.406.398.408 2.11.015 3.896.728 5.308 2.122 1.412 1.392 2.136 3.337 2.155 5.778.001.221.18.4.399.4h.004zm-2.105-.83h-.01a.401.401 0 0 1-.39-.413c.03-1.385-.36-2.504-1.194-3.426-.83-.918-1.97-1.42-3.487-1.532a.403.403 0 0 1-.37-.433.403.403 0 0 1 .428-.375c1.706.127 3.058.73 4.02 1.794.966 1.066 1.438 2.409 1.402 3.989a.4.4 0 0 1-.399.396zm-2.053-.696a.403.403 0 0 1-.4-.385c-.067-1.373-.706-2.047-2.013-2.117a.403.403 0 0 1-.377-.426.4.4 0 0 1 .42-.382c1.723.093 2.681 1.09 2.77 2.885a.402.402 0 0 1-.38.425h-.02z"/>
</svg>
