<svg xmlns="http://www.w3.org/2000/svg" width="36" height="36" viewBox="0 0 36 36">
    <path fill="#FFF" fill-rule="evenodd" d="M24.448 29.746c.376.262.86.328 1.291.167a1.34 1.34 0 0 0 .845-.966c1.014-4.697 3.473-16.584 4.396-20.857a.89.89 0 0 0-.303-.871.945.945 0 0 0-.93-.161C24.855 8.842 9.79 14.414 3.633 16.66A.951.951 0 0 0 3 17.58c.014.407.292.76.692.879 2.762.814 6.386 1.947 6.386 1.947s1.694 5.042 2.578 7.607c.11.322.366.575.703.662.336.086.695-.004.946-.238l3.612-3.361s4.167 3.012 6.531 4.671zm-12.845-9.979l1.96 6.37.434-4.034L25.88 11.54a.316.316 0 0 0 .039-.433.335.335 0 0 0-.439-.074l-13.876 8.735z"/>
</svg>
